<svg width="47" height="45" viewBox="0 0 47 45" fill="none" xmlns="http://www.w3.org/2000/svg">
<path d="M23.5 0.5C29.6192 0.505701 35.474 2.61461 39.7822 6.34668C43.9536 9.9603 46.3411 14.8042 46.4922 19.8672L46.5 20.3584C46.4999 24.3297 45.4754 29.3556 42.9883 32.5801C40.3551 35.994 39.6362 37.9836 35.5166 39.4619C33.3813 40.2281 26.4815 42.472 20.9326 43.6924C19.5469 43.9971 18.2529 44.2362 17.1436 44.373C16.0244 44.5111 15.13 44.5392 14.5254 44.4443C14.222 44.3967 14.0362 44.3247 13.9355 44.2559C13.8545 44.2003 13.8437 44.1611 13.8408 44.1201C13.8359 44.0482 13.8601 43.8915 14.0186 43.6221C14.1734 43.3588 14.4315 43.0303 14.8203 42.6299L15.4805 41.9492L14.5469 41.7881C12.2876 41.3988 10.5371 40.9454 8.9541 40.248C7.37463 39.5523 5.94021 38.6041 4.3252 37.2051C2.83 35.9098 2.18785 33.7497 1.82715 31.2969C1.64828 30.0805 1.54294 28.832 1.42383 27.6172C1.30578 26.4133 1.17314 25.2399 0.938477 24.2178C0.0575142 20.3811 0.509479 16.403 2.24023 12.7832C3.97178 9.16186 6.90943 6.05412 10.6943 3.86328C14.2429 1.80923 18.3818 0.650551 22.6455 0.513672L23.5 0.5ZM25.1943 5.7959C23.1275 5.52773 20.8092 5.12796 18.7861 5.47656C16.8568 5.80902 15.862 6.07468 14.998 6.60156C14.5712 6.86188 14.1903 7.17701 13.7549 7.56348C13.3236 7.9462 12.8486 8.38648 12.1865 8.96191C10.7919 9.49236 9.86908 10.2117 9.28906 11.0811C8.69892 11.9657 8.49882 12.9537 8.45605 13.9326C8.41389 14.8986 8.52551 15.9142 8.59277 16.833C8.66186 17.7769 8.686 18.6326 8.5127 19.3877C8.14552 20.9868 7.45989 21.8526 6.94727 22.916C6.69669 23.4358 6.50317 23.9884 6.49121 24.6416C6.47929 25.2934 6.64902 26.0007 7.04883 26.8369C7.41415 27.6009 7.70106 28.361 7.98047 29.1162C8.25739 29.8647 8.52957 30.6178 8.86035 31.332C9.53112 32.7802 10.4536 34.1011 12.2021 35.1133C15.5514 37.0519 19.483 38.083 23.5 38.083H23.501C28.9545 38.0775 33.9958 34.952 37.7529 31.6973C39.7046 30.0066 40.5303 28.3041 40.8516 26.4248C41.1239 24.8314 41.0314 23.083 41.0059 21.1826L41 20.3584V20.3574C41 18.6063 40.7704 17.2968 40.2422 16.0518C39.7195 14.8199 38.916 13.6798 37.8223 12.2617C35.7255 9.54334 34.7147 6.86706 30.8994 5.49805L30.6953 5.4248L30.5029 5.52344C29.8506 5.85738 29.0617 6.00078 28.1523 6.01953C27.2427 6.03829 26.2472 5.9325 25.1943 5.7959ZM22.1924 31.1963L22.1348 31.0869L21.9844 30.7988L21.8672 30.5762L21.6182 30.5371L18.1533 30.001L18.1152 29.9951H18.0771C17.8338 29.9951 17.5038 29.995 17.1963 29.9619C17.0433 29.9455 16.9096 29.9229 16.8037 29.8926C16.7516 29.8776 16.7115 29.8623 16.6826 29.8486C16.6532 29.8347 16.6416 29.8252 16.6416 29.8252C16.553 29.7486 16.4429 29.7008 16.3877 29.6777C16.3135 29.6467 16.2249 29.6154 16.1318 29.584C15.9456 29.5211 15.7023 29.4467 15.4385 29.3652C14.9017 29.1995 14.2522 28.9959 13.6592 28.7559C13.0487 28.5088 12.5706 28.2508 12.3242 28.0039C12.2064 27.8859 12.1863 27.8147 12.1836 27.791C12.1828 27.7839 12.1743 27.7285 12.2783 27.6084L12.9854 26.792L11.9053 26.7812C11.7886 26.78 11.6858 26.7766 11.5957 26.7715C11.7345 26.6867 11.8972 26.5956 12.0791 26.501C12.6548 26.2015 13.3627 25.8916 13.9609 25.6328C14.2562 25.5051 14.5284 25.3882 14.7354 25.2949C14.8387 25.2483 14.9324 25.2052 15.0078 25.167C15.0448 25.1483 15.099 25.1168 15.1543 25.0811L15.2588 25.082C15.3024 25.0847 15.3549 25.0904 15.417 25.0986C15.6626 25.1312 15.9801 25.2014 16.3223 25.2861C16.6943 25.3783 16.9723 25.4555 17.3066 25.5391C17.4553 25.5762 17.5972 25.6093 17.7197 25.6338C17.8077 25.6514 17.9069 25.6661 18 25.6729L26.124 27.1143L26.168 27.1211H26.2119C27.0421 27.121 27.8502 26.8363 28.4561 26.3115C29.0643 25.7846 29.4229 25.0531 29.4229 24.2725C29.4228 23.9957 29.2687 23.8018 29.1455 23.6904C29.0228 23.5796 28.8738 23.4977 28.749 23.4365C28.6201 23.3733 28.4788 23.3149 28.3574 23.2646C28.2795 23.2324 28.2103 23.2001 28.1465 23.1719C28.2036 23.1385 28.271 23.0994 28.3525 23.0586L29.0215 22.7236L28.4561 22.2334C28.3015 22.0997 28.1154 22.0721 28.0156 22.0635C27.8978 22.0533 27.7715 22.0609 27.6514 22.0742C27.4088 22.1011 27.111 22.1626 26.7939 22.2373C26.4736 22.3128 26.1134 22.4067 25.7432 22.5029C25.3705 22.5998 24.985 22.6997 24.6045 22.79C23.8307 22.9738 23.1261 23.1052 22.6289 23.1025C22.3788 23.1011 22.2471 23.0641 22.1924 23.0352V22.6055L21.7666 22.541L18.9453 22.1172L18.9082 22.1113H18.8711C18.1911 22.1113 17.8062 21.8785 17.4346 21.5137C17.2319 21.3147 17.0459 21.0891 16.8096 20.8164C16.5805 20.5521 16.3183 20.2603 15.9941 19.9795C15.0042 19.1219 14.9619 17.9322 14.9619 16.4424C14.9619 15.7089 14.9677 14.9763 15.1084 14.3047C15.2472 13.6424 15.5095 13.079 15.9941 12.6592L16.0713 12.5918L16.1162 12.5C16.3662 11.9854 16.8086 11.3728 17.376 10.8945C17.9439 10.4159 18.5987 10.1025 19.2822 10.1025H20.5293L20.5713 10.0957L21.7773 9.88867L22.1924 9.81738V9.39551C22.1925 9.13795 22.3096 8.87322 22.5488 8.66602C22.7904 8.45678 23.1319 8.33008 23.5 8.33008C23.8681 8.33008 24.2096 8.45678 24.4512 8.66602C24.6904 8.87322 24.8075 9.13795 24.8076 9.39551V9.7168L25.0996 9.85059L25.5508 10.0576L25.6504 10.1025H29.375C29.3787 10.1028 29.4101 10.1056 29.4785 10.123C29.547 10.1405 29.6334 10.1681 29.7344 10.2051C29.936 10.2789 30.1744 10.383 30.415 10.499C30.6551 10.6148 30.8903 10.7384 31.083 10.8496C31.2855 10.9665 31.4113 11.0523 31.457 11.0918C31.5956 11.2119 32.0046 11.6419 32.2275 12.0449C32.2809 12.1414 32.317 12.2245 32.3369 12.291C32.3435 12.3132 32.3459 12.3324 32.3486 12.3477C32.3334 12.3528 32.314 12.3617 32.2871 12.3672L31.8877 12.4492V12.8066C31.8839 12.8115 31.8802 12.8182 31.874 12.8252C31.8273 12.8776 31.7463 12.9447 31.627 13.0273C31.5086 13.1092 31.384 13.1859 31.2461 13.2734C31.1203 13.3533 30.9713 13.4496 30.8545 13.5508C30.8866 13.5229 30.8621 13.5556 30.6777 13.584C30.522 13.6079 30.3224 13.6189 30.1006 13.6211C29.8813 13.6233 29.6545 13.6168 29.4482 13.6094C29.2503 13.6023 29.0545 13.5938 28.9229 13.5938H20.7881C20.4697 13.5938 20.2038 13.7159 20.0215 13.9492C19.8692 14.1441 19.8079 14.3807 19.7715 14.5342C19.7262 14.7249 19.7078 14.8377 19.665 14.9648C19.6276 15.0761 19.5912 15.1291 19.5576 15.1582C19.5335 15.1791 19.5068 15.2033 19.4814 15.2305C19.4591 15.2544 19.421 15.2973 19.3887 15.3555C19.3648 15.3984 19.2873 15.5485 19.3379 15.7422C19.4 15.9799 19.5913 16.0744 19.6875 16.1035C19.7769 16.1305 19.8547 16.1279 19.8867 16.126C19.9269 16.1235 19.9627 16.1175 19.9893 16.1123C20.0212 16.106 20.0531 16.0956 20.084 16.0869C20.2604 16.2286 20.4619 16.2407 20.5781 16.2363C20.8015 16.2278 21.0679 16.1362 21.2432 16.0791C21.4159 16.0228 21.5628 15.9763 21.6904 15.9492C21.6823 15.9659 21.6754 15.9846 21.666 16.0029C21.5157 16.2967 21.2719 16.664 21.0117 17.0498C20.7646 17.4162 20.494 17.8122 20.3369 18.1152C20.2673 18.2495 20.1726 18.4504 20.165 18.6514C20.1608 18.7649 20.1819 18.9528 20.333 19.1084C20.4833 19.263 20.6706 19.2919 20.7881 19.292H26.2119C26.7233 19.2919 27.4075 19.0928 28.0566 18.8857C28.744 18.6665 29.4382 18.4213 30.0723 18.2559C30.3855 18.1741 30.6646 18.1177 30.9004 18.0947C31.1426 18.0712 31.2992 18.0876 31.3896 18.1182C31.4578 18.1413 31.4674 18.1621 31.4766 18.1865C31.4964 18.2396 31.5194 18.3812 31.4492 18.6758L31.1582 19.8975L32.21 19.21C32.4648 19.0435 32.634 19.0067 32.7344 19.0088C32.822 19.0106 32.9059 19.0427 33.001 19.1348C33.2257 19.3527 33.4267 19.8258 33.5723 20.5166C33.855 21.8591 33.8457 23.5893 33.8457 24.3291C33.8457 24.9222 33.5557 25.7118 33.0801 26.5137C32.6115 27.3037 32.0041 28.0368 31.457 28.5107C30.8631 29.0252 30.4123 29.3873 29.9209 29.6289C29.444 29.8634 28.9039 29.9951 28.1289 29.9951H26.0176L25.875 30.126L24.9707 30.9502L24.8076 31.0986V31.3193C24.8076 31.5769 24.6903 31.8416 24.4512 32.0488C24.4468 32.0526 24.4467 32.0538 24.4336 32.0557C24.4098 32.059 24.3643 32.0589 24.2754 32.0439C24.1706 32.0262 24.1014 32.0073 23.9512 31.9775C23.8242 31.9524 23.6683 31.9268 23.5 31.9268C23.3317 31.9268 23.1758 31.9524 23.0488 31.9775C22.8986 32.0073 22.8294 32.0262 22.7246 32.0439C22.6357 32.0589 22.5902 32.059 22.5664 32.0557C22.5533 32.0538 22.5532 32.0526 22.5488 32.0488C22.3097 31.8416 22.1924 31.5769 22.1924 31.3193V31.1963Z" fill="white" stroke="black"/>
</svg>
