<svg width="24" height="24" viewBox="0 0 24 24" fill="none" xmlns="http://www.w3.org/2000/svg">
<path d="M19.875 5.75V4.875C19.875 3.42728 18.6977 2.25 17.25 2.25H4.125C2.67728 2.25 1.5 3.42728 1.5 4.875V18.875C1.5 20.3227 2.67728 21.5 4.125 21.5H19.875C21.3227 21.5 22.5 20.3227 22.5 18.875V8.375C22.5 6.92728 21.3227 5.75 19.875 5.75ZM4.125 4H17.25C17.7326 4 18.125 4.39243 18.125 4.875V5.75H4.125C3.64243 5.75 3.25 5.35757 3.25 4.875C3.25 4.39243 3.64243 4 4.125 4ZM19.875 19.75H4.125C3.64243 19.75 3.25 19.3576 3.25 18.875V7.35004C3.52386 7.44702 3.81824 7.5 4.125 7.5H19.875C20.3576 7.5 20.75 7.89243 20.75 8.375V10.5625H15.9375C14.2488 10.5625 12.875 11.9367 12.875 13.625C12.875 15.3133 14.2488 16.6875 15.9375 16.6875H20.75V18.875C20.75 19.3576 20.3576 19.75 19.875 19.75ZM20.75 14.9375H18.7024C18.8949 14.531 19 14.0862 19 13.625C19 13.155 18.8902 12.7111 18.7003 12.3125H20.75V14.9375ZM14.625 13.625C14.625 12.9015 15.214 12.3125 15.9375 12.3125C16.661 12.3125 17.25 12.9015 17.25 13.625C17.25 13.9753 17.1131 14.3071 16.8706 14.5517C16.6196 14.8006 16.2878 14.9375 15.9375 14.9375C15.214 14.9375 14.625 14.3485 14.625 13.625Z" fill="white"/>
</svg>
