<svg width="24" height="24" viewBox="0 0 24 24" fill="none" xmlns="http://www.w3.org/2000/svg">
<path d="M13.75 1.5C15.0484 1.5 16.1268 2.44806 16.3359 3.6875H19C19.483 3.6875 19.875 4.0795 19.875 4.5625V21.625C19.875 22.108 19.483 22.5 19 22.5H5C4.517 22.5 4.125 22.108 4.125 21.625V4.5625C4.125 4.0795 4.517 3.6875 5 3.6875H7.66406C7.87363 2.44806 8.95203 1.5 10.25 1.5H13.75ZM5.875 20.75H18.125V5.4375H16.375V6.3125C16.375 6.7955 15.983 7.1875 15.5 7.1875H8.5C8.017 7.1875 7.625 6.7955 7.625 6.3125V5.4375H5.875V20.75ZM14.625 17.25C15.108 17.25 15.5 17.642 15.5 18.125C15.5 18.608 15.108 19 14.625 19H12.875C12.392 19 12 18.608 12 18.125C12 17.642 12.392 17.25 12.875 17.25H14.625ZM14.625 12.875C15.108 12.875 15.5 13.267 15.5 13.75C15.5 14.233 15.108 14.625 14.625 14.625H9.375C8.892 14.625 8.5 14.233 8.5 13.75C8.5 13.267 8.892 12.875 9.375 12.875H14.625ZM14.625 9.375C15.108 9.375 15.5 9.767 15.5 10.25C15.5 10.733 15.108 11.125 14.625 11.125H9.375C8.892 11.125 8.5 10.733 8.5 10.25C8.5 9.767 8.892 9.375 9.375 9.375H14.625ZM10.25 3.25C9.76743 3.25 9.375 3.64243 9.375 4.125V5.4375H14.625V4.125C14.625 3.64243 14.2326 3.25 13.75 3.25H10.25Z" fill="white"/>
</svg>
