<svg width="34" height="34" viewBox="0 0 34 34" fill="none" xmlns="http://www.w3.org/2000/svg">
<g clip-path="url(#clip0_2_9576)">
<path d="M9.28414 13.3135H9.55782C10.6115 13.3135 11.4736 14.1756 11.4736 15.2293V24.8081C11.4736 25.8618 10.6115 26.7239 9.55782 26.7239H9.28414C8.23047 26.7239 7.36838 25.8618 7.36838 24.8081V15.2293C7.36838 14.1756 8.23047 13.3135 9.28414 13.3135ZM16.9472 7.56625C18.0009 7.56625 18.863 8.42834 18.863 9.48201V24.8081C18.863 25.8618 18.0009 26.7239 16.9472 26.7239C15.8935 26.7239 15.0314 25.8618 15.0314 24.8081V9.48201C15.0314 8.42834 15.8935 7.56625 16.9472 7.56625ZM24.6103 18.5135C25.6639 18.5135 26.526 19.3756 26.526 20.4292V24.8081C26.526 25.8618 25.6639 26.7239 24.6103 26.7239C23.5566 26.7239 22.6945 25.8618 22.6945 24.8081V20.4292C22.6945 19.3756 23.5566 18.5135 24.6103 18.5135Z" fill="#1C4532"/>
</g>
<defs>
<clipPath id="clip0_2_9576">
<rect width="32.8417" height="32.8417" fill="white" transform="translate(0.526367 0.724243)"/>
</clipPath>
</defs>
</svg>
