<svg width="24" height="24" viewBox="0 0 24 24" fill="none" xmlns="http://www.w3.org/2000/svg">
<path d="M18.0078 1.5C18.484 1.5 18.87 1.88605 18.8701 2.3623V19.8857C18.8699 20.3619 18.484 20.748 18.0078 20.748H16.2559C15.7797 20.748 15.3938 20.3619 15.3936 19.8857C15.3936 19.4094 15.7795 19.0225 16.2559 19.0225H17.1455V3.22461H6.60449V19.0225H11.5449L11.2656 18.7432C10.9289 18.4064 10.9289 17.8602 11.2656 17.5234C11.6024 17.1867 12.1486 17.1867 12.4854 17.5234C14.4155 19.4536 14.2518 19.285 14.3066 19.3555C14.5516 19.6694 14.5487 20.1049 14.3066 20.415C14.2553 20.481 14.4315 20.301 12.4854 22.2471C12.3169 22.4155 12.0957 22.5 11.875 22.5C11.1137 22.5001 10.7207 21.5723 11.2656 21.0273L11.5449 20.748H5.7373C5.26121 20.748 4.87525 20.3618 4.875 19.8857C4.875 19.8559 4.87692 19.826 4.87988 19.7969V2.3623C4.87996 1.88605 5.26592 1.5 5.74219 1.5H18.0078ZM14.5039 8.50879C14.98 8.50902 15.3662 8.89589 15.3662 9.37207C15.366 9.84804 14.9799 10.2341 14.5039 10.2344H9.24707C8.7709 10.2344 8.38404 9.84818 8.38379 9.37207C8.38379 8.89575 8.77075 8.50879 9.24707 8.50879H14.5039ZM13.627 5.00488C14.1033 5.00488 14.4893 5.39087 14.4893 5.86719C14.4892 6.34343 14.1032 6.72949 13.627 6.72949H10.123C9.64678 6.72949 9.26084 6.34343 9.26074 5.86719C9.26074 5.39087 9.64673 5.00488 10.123 5.00488H13.627Z" fill="white"/>
</svg>
