<svg width="24" height="24" viewBox="0 0 24 24" fill="none" xmlns="http://www.w3.org/2000/svg">
<path d="M2.3623 9.7766C2.83862 9.7766 3.22459 10.1626 3.22461 10.6389V16.01C3.22461 16.6214 3.72255 17.1194 4.33398 17.1194H19.5557L19.2754 16.8391C18.9387 16.5023 18.9387 15.9562 19.2754 15.6194C19.6122 15.2826 20.1583 15.2827 20.4951 15.6194L22.2451 17.3694C22.5305 17.6525 22.5793 18.0892 22.375 18.427C22.2975 18.5556 22.3549 18.4847 20.4951 20.344C20.1582 20.6806 19.6121 20.6798 19.2754 20.343C18.939 20.0062 18.9389 19.461 19.2754 19.1243L19.5557 18.844H4.33398C2.77142 18.844 1.5 17.5726 1.5 16.01V10.6389C1.5 10.1613 1.88756 9.77677 2.3623 9.7766ZM3.50488 4.00219C3.84182 3.66545 4.38795 3.66642 4.72461 4.00317C5.06133 4.34002 5.06144 4.88614 4.72461 5.22289L4.44434 5.50219H17.9141C19.4766 5.50219 20.748 6.77361 20.748 8.33617V13.3186C20.7478 13.7947 20.3618 14.1808 19.8857 14.1809C19.4096 14.1809 19.0237 13.7947 19.0234 13.3186V10.6955H6.74316C6.26704 10.6954 5.88099 10.3094 5.88086 9.83324C5.88086 9.35701 6.26696 9.00036 6.74316 9.00024H19.0234V8.33617C19.0234 7.72474 18.5255 7.2268 17.9141 7.2268H4.44531L4.72461 7.50707C5.26974 8.05229 4.87624 8.97952 4.11523 8.97973C3.89453 8.97973 3.67331 8.89522 3.50488 8.7268L1.75391 6.97582C1.48055 6.70317 1.41755 6.27236 1.61816 5.92992C1.69772 5.79357 1.61204 5.89454 3.50488 4.00219Z" fill="white"/>
</svg>
