<svg width="27" height="29" viewBox="0 0 27 29" fill="none" xmlns="http://www.w3.org/2000/svg">
<path d="M13.499 0.5C16.9518 0.503511 20.2594 1.82614 22.6953 4.17188C25.0543 6.4436 26.4103 9.49467 26.4961 12.6904L26.5 13.001C26.4998 15.5252 25.9126 18.6971 24.5127 20.7148C22.9772 22.9278 22.6036 24.1221 20.3145 25.0352C19.0933 25.5222 15.1409 26.9508 11.9678 27.7266C11.1761 27.9201 10.4415 28.0714 9.81543 28.1572C9.17851 28.2445 8.69516 28.2581 8.38574 28.2041C8.26536 28.1831 8.19951 28.1543 8.16699 28.1367C8.17312 28.1019 8.19167 28.0343 8.24805 27.9277C8.32854 27.7757 8.46722 27.5779 8.68457 27.3291L9.25781 26.6729L8.40137 26.5088C7.11467 26.2623 6.13185 25.9777 5.24805 25.5449C4.36692 25.1134 3.56076 24.5229 2.64355 23.6396C1.83513 22.8612 1.46842 21.5365 1.26074 19.9668C1.15853 19.1942 1.09892 18.4013 1.03027 17.623C0.962484 16.8545 0.885812 16.0968 0.749023 15.4346C0.249065 13.0137 0.50588 10.5043 1.4873 8.22266C2.4689 5.94073 4.13234 3.98709 6.27051 2.61133C8.40861 1.23564 10.9242 0.500186 13.499 0.5ZM14.5078 3.52344C13.3439 3.35557 11.9595 3.08816 10.7471 3.32031C9.63629 3.53308 9.02209 3.70971 8.48438 4.07422C8.22235 4.25189 7.99279 4.4647 7.74121 4.71289C7.494 4.95677 7.23343 5.22441 6.86719 5.5791C5.21206 6.28612 4.4566 7.35357 4.08301 8.53418C3.89886 9.11622 3.80971 9.71658 3.73926 10.2822C3.66705 10.8619 3.61555 11.3909 3.51074 11.8984C3.30202 12.9089 2.87203 13.5899 2.51953 14.4639C2.17334 15.3222 1.98437 16.238 2.4873 17.4072C3.39204 19.5105 4.92267 21.3051 6.88281 22.5664C8.84298 23.8276 11.1459 24.5 13.5 24.5H13.501C16.7303 24.4963 19.6818 22.445 21.8467 20.3604C24.0416 18.2467 25.4191 16.1039 25.4229 13.001V13C25.4229 11.7203 24.7747 10.8098 24.0469 10.0332C23.6928 9.65538 23.2781 9.2677 22.9189 8.90723C22.5465 8.53333 22.1998 8.15624 21.9111 7.74023C21.6065 7.30122 21.3465 6.87641 21.0879 6.45801C20.8323 6.04453 20.5762 5.63397 20.2891 5.25195C19.7031 4.4726 18.9856 3.80504 17.8389 3.34766L17.6152 3.25781L17.4062 3.37695C17.0761 3.56475 16.666 3.65165 16.167 3.66309C15.6662 3.67455 15.1115 3.61051 14.5078 3.52344ZM13.5 5.5C13.6488 5.5 13.788 5.55735 13.8877 5.65332C13.9866 5.74864 14.0381 5.87371 14.0381 6V7.5H16.6152C16.764 7.5 16.9033 7.55735 17.0029 7.65332C17.1018 7.74865 17.1543 7.87368 17.1543 8C17.1543 8.12632 17.1018 8.25135 17.0029 8.34668C16.9033 8.44265 16.764 8.5 16.6152 8.5H11.9424C11.4027 8.5 10.8813 8.70628 10.4941 9.0791C10.1063 9.45259 9.88477 9.96335 9.88477 10.5C9.88477 11.0367 10.1063 11.5474 10.4941 11.9209C10.8813 12.2937 11.4027 12.5 11.9424 12.5H15.0576C15.8949 12.5 16.6947 12.8209 17.2812 13.3857C17.8669 13.9499 18.1924 14.7107 18.1924 15.5C18.1924 16.2893 17.8669 17.0501 17.2812 17.6143C16.6947 18.1791 15.8949 18.5 15.0576 18.5H14.0381V20C14.0381 20.1263 13.9866 20.2514 13.8877 20.3467C13.788 20.4426 13.6488 20.5 13.5 20.5C13.3512 20.5 13.212 20.4426 13.1123 20.3467C13.0134 20.2514 12.9619 20.1263 12.9619 20V18.5H10.3848C10.236 18.5 10.0967 18.4426 9.99707 18.3467C9.89816 18.2514 9.8457 18.1263 9.8457 18C9.8457 17.8737 9.89817 17.7486 9.99707 17.6533C10.0967 17.5574 10.236 17.5 10.3848 17.5H15.0576C15.5973 17.5 16.1187 17.2937 16.5059 16.9209C16.8937 16.5474 17.1152 16.0367 17.1152 15.5C17.1152 14.9633 16.8937 14.4526 16.5059 14.0791C16.1187 13.7063 15.5973 13.5 15.0576 13.5H11.9424C11.1051 13.5 10.3053 13.1791 9.71875 12.6143C9.13311 12.0501 8.80762 11.2893 8.80762 10.5C8.80762 9.71075 9.13311 8.94989 9.71875 8.38574C10.3053 7.82093 11.1051 7.5 11.9424 7.5H12.9619V6C12.9619 5.87372 13.0134 5.74864 13.1123 5.65332C13.212 5.55736 13.3512 5.5 13.5 5.5Z" fill="#1C4532" stroke="black"/>
</svg>
