<svg width="28" height="27" viewBox="0 0 28 27" fill="none" xmlns="http://www.w3.org/2000/svg">
<path d="M9.71737 3.55339L7.91902 5.78828C7.76943 5.97535 7.72076 6.16709 7.77301 6.3635L10.6968 17.2837C10.7165 17.359 10.7566 17.4227 10.8129 17.4683C10.8693 17.5139 10.9399 17.5398 11.0176 17.5435L25.2842 18.254C25.3152 18.2555 25.3435 18.2658 25.3661 18.2838C25.3887 18.3018 25.4049 18.3269 25.413 18.3566C25.4212 18.3863 25.421 18.4195 25.4124 18.4528C25.4039 18.4862 25.3873 18.5184 25.3644 18.5464C23.446 20.9249 21.4971 23.3256 19.5178 25.7487C19.1493 26.2015 18.6257 26.4108 17.9472 26.3766C13.6091 26.1696 9.27339 25.9549 4.94012 25.7326C4.31554 25.6999 4.04844 25.1694 3.87643 24.5461C2.17561 18.3532 1.05202 14.2048 0.50566 12.101C0.260791 11.1587 1.63733 9.71271 2.32862 8.95423C2.35415 8.92582 2.38485 8.90321 2.41779 8.88855C2.45074 8.8739 2.48486 8.86767 2.5169 8.87047C2.54895 8.87327 2.57786 8.88501 2.60091 8.90456C2.62396 8.92411 2.64038 8.95084 2.64861 8.9822L6.28702 22.6553C6.31189 22.748 6.36159 22.8264 6.43118 22.8828C6.50077 22.9392 6.58782 22.9715 6.68365 22.9765L17.8795 23.5299C17.9619 23.5343 18.0492 23.5147 18.1325 23.4731C18.2159 23.4315 18.2923 23.3694 18.3541 23.293L20.1097 21.1391C20.2499 20.966 20.2248 20.8747 20.0346 20.8652L8.91192 20.3024C8.6463 20.2896 8.4796 20.1546 8.41182 19.8974L4.77968 6.28355C4.75484 6.18887 4.75624 6.08306 4.78376 5.97668C4.81127 5.87031 4.86394 5.7671 4.9365 5.67736C5.9291 4.461 6.93648 3.22169 7.95863 1.95944C8.78005 0.941546 9.44541 0.46545 10.5205 0.530621C14.597 0.776206 18.6808 0.997562 22.7718 1.19469C24.0837 1.25658 24.3343 2.59724 24.5874 3.72682C24.6271 3.90821 24.5525 4.03084 24.3638 4.09468C24.2659 4.1262 24.13 4.13773 23.956 4.12927C20.4009 3.952 16.8458 3.77831 13.2907 3.6082C13.1852 3.60219 13.0881 3.61271 12.9996 3.63974C12.9871 3.64342 12.975 3.64985 12.9641 3.65856C12.9531 3.66728 12.9436 3.67806 12.9363 3.69013C12.929 3.7022 12.924 3.71525 12.9218 3.72833C12.9195 3.74141 12.92 3.75419 12.9233 3.76574L13.5873 6.2285C13.6006 6.27759 13.6268 6.31905 13.6635 6.34871C13.7001 6.37837 13.7458 6.39519 13.796 6.39747L25.0544 6.95824C25.1773 6.9642 25.2891 7.00517 25.3786 7.07705C25.4682 7.14894 25.5324 7.24926 25.5649 7.36802C26.1759 9.60124 26.7776 11.8847 27.37 14.2185C27.4377 14.4899 27.4732 14.8269 27.4766 15.2293C27.4773 15.2732 27.4678 15.3189 27.449 15.363C27.4301 15.4071 27.4024 15.4482 27.368 15.4831C27.3336 15.5181 27.2935 15.5458 27.2509 15.5642C27.2082 15.5826 27.1643 15.5911 27.1225 15.5891L13.0734 14.8778C13.0165 14.8756 12.9649 14.8565 12.9239 14.8227C12.8829 14.7889 12.8541 14.7415 12.8407 14.6857L12.2424 12.2581C12.1959 12.0663 12.2712 11.9745 12.4684 11.9825C16.2369 12.1688 19.9916 12.3452 23.7325 12.5117C23.8079 12.5149 23.8555 12.5102 23.8754 12.4974C23.9098 12.4759 23.9371 12.44 23.9518 12.397C23.9665 12.354 23.9675 12.307 23.9547 12.2654L23.2733 9.95111C23.2544 9.8872 23.2187 9.83346 23.1697 9.79508C23.1208 9.75671 23.0602 9.73499 22.9939 9.73204L11.6293 9.15763C11.5531 9.15407 11.4838 9.12856 11.4283 9.08369C11.3729 9.03882 11.3334 8.97617 11.3138 8.90208L9.91224 3.5631C9.90739 3.54377 9.89729 3.52738 9.88298 3.51561C9.86868 3.50384 9.85067 3.49711 9.83083 3.49612C9.81098 3.49513 9.79001 3.49992 9.77007 3.50998C9.75013 3.52004 9.73194 3.53503 9.71737 3.55339Z" fill="#1C4532"/>
</svg>
