<svg width="32" height="31" viewBox="0 0 32 31" fill="none" xmlns="http://www.w3.org/2000/svg">
<path d="M11.0408 4.06592L8.96189 6.6497C8.78898 6.86598 8.73363 7.08839 8.79585 7.31692L12.2772 20.0235C12.3007 20.111 12.3478 20.1853 12.4137 20.2387C12.4796 20.2921 12.5621 20.3227 12.6526 20.3274L29.2736 21.2522C29.3097 21.2542 29.3426 21.2663 29.3691 21.2874C29.3956 21.3085 29.4146 21.3378 29.4243 21.3724C29.434 21.4069 29.434 21.4455 29.4242 21.4842C29.4145 21.5228 29.3954 21.5602 29.3689 21.5925C27.1512 24.3422 24.8981 27.1177 22.6098 29.9188C22.1837 30.4422 21.5754 30.6817 20.7849 30.6373C15.7309 30.3666 10.6798 30.087 5.63136 29.7985C4.9037 29.7562 4.58892 29.1381 4.38425 28.4128C2.36021 21.2066 1.02269 16.3795 0.371708 13.9317C0.0799511 12.8353 1.6731 11.165 2.47295 10.2887C2.50249 10.2559 2.53808 10.2298 2.57635 10.213C2.61462 10.1962 2.65431 10.1892 2.69165 10.1927C2.72899 10.1962 2.76275 10.21 2.78973 10.2329C2.81671 10.2558 2.83602 10.2869 2.84583 10.3234L7.17863 26.233C7.20824 26.3409 7.26667 26.4323 7.34811 26.4983C7.42956 26.5642 7.53116 26.6024 7.64282 26.6089L20.6863 27.3298C20.7823 27.3355 20.8838 27.3133 20.9805 27.2655C21.0773 27.2178 21.1658 27.1462 21.2373 27.0579L23.267 24.5679C23.429 24.3678 23.3992 24.2616 23.1776 24.2491L10.2194 23.5179C9.90996 23.5011 9.71486 23.3431 9.63412 23.0439L5.30904 7.2032C5.27944 7.09303 5.28034 6.97012 5.31164 6.84673C5.34295 6.72335 5.40357 6.60382 5.48745 6.50007C6.63504 5.09392 7.79968 3.66121 8.98137 2.20195C9.93096 1.02518 10.7026 0.476723 11.9551 0.559922C16.7047 0.873616 21.4625 1.15921 26.2286 1.41671C27.7569 1.49775 28.0582 3.05696 28.3608 4.37097C28.4083 4.58198 28.3223 4.72391 28.1029 4.79677C27.9892 4.8327 27.8309 4.84515 27.6282 4.8341C23.4865 4.60341 19.3448 4.37687 15.203 4.15448C15.08 4.14677 14.9671 4.15831 14.8642 4.1891C14.8497 4.19328 14.8356 4.20067 14.8229 4.21072C14.8102 4.22077 14.7992 4.23323 14.7908 4.2472C14.7824 4.26117 14.7767 4.2763 14.7741 4.29148C14.7716 4.30665 14.7723 4.3215 14.7761 4.33494L15.5667 7.20059C15.5825 7.25772 15.6133 7.30607 15.6562 7.34078C15.6991 7.37549 15.7524 7.39534 15.8109 7.39834L28.9272 8.12822C29.0704 8.136 29.2008 8.18436 29.3057 8.2685C29.4105 8.35264 29.486 8.46962 29.5247 8.60782C30.2518 11.2064 30.9685 13.8634 31.6747 16.5786C31.7554 16.8945 31.7991 17.2862 31.8059 17.7537C31.807 17.8047 31.7963 17.8578 31.7746 17.9088C31.753 17.9599 31.721 18.0075 31.6812 18.0478C31.6413 18.0882 31.5948 18.1201 31.5453 18.1412C31.4958 18.1623 31.4446 18.1719 31.3959 18.1692L15.0284 17.245C14.9621 17.242 14.9018 17.2196 14.8538 17.18C14.8059 17.1404 14.7721 17.0852 14.756 17.0202L14.0423 14.1959C13.9868 13.9728 14.0739 13.8666 14.3036 13.8773C18.694 14.12 23.0682 14.3511 27.4263 14.5705C27.5141 14.5748 27.5696 14.5696 27.5927 14.5549C27.6325 14.5301 27.6641 14.4887 27.6809 14.4388C27.6977 14.3889 27.6986 14.3344 27.6834 14.286L26.8737 11.5927C26.8512 11.5183 26.8092 11.4556 26.752 11.4107C26.6947 11.3658 26.624 11.3401 26.5467 11.3362L13.3067 10.5898C13.2179 10.5851 13.1369 10.555 13.0721 10.5025C13.0072 10.45 12.9608 10.3769 12.9374 10.2907L11.2678 4.07856C11.2621 4.05608 11.2502 4.03696 11.2334 4.02319C11.2167 4.00941 11.1957 4.00147 11.1726 4.00018C11.1494 3.9989 11.1251 4.00431 11.1019 4.01586C11.0787 4.02741 11.0577 4.04469 11.0408 4.06592Z" fill="#917A7A" fill-opacity="0.88"/>
</svg>
